<svg width="14" height="14" viewBox="0 0 14 14" fill="none" xmlns="http://www.w3.org/2000/svg">
<path d="M2.625 13.125H7.875C8.10706 13.125 8.32962 13.0328 8.49372 12.8687C8.65781 12.7046 8.75 12.4821 8.75 12.25V10.9375H7.875V12.25H2.625V1.75H7.875V3.0625H8.75V1.75C8.75 1.51794 8.65781 1.29538 8.49372 1.13128C8.32962 0.967187 8.10706 0.875 7.875 0.875H2.625C2.39294 0.875 2.17038 0.967187 2.00628 1.13128C1.84219 1.29538 1.75 1.51794 1.75 1.75V12.25C1.75 12.4821 1.84219 12.7046 2.00628 12.8687C2.17038 13.0328 2.39294 13.125 2.625 13.125Z" fill="#CF3838"/>
<path d="M9.00638 9.00638L10.5753 7.4375H4.375V6.5625H10.5753L9.00638 4.99362L9.625 4.375L12.25 7L9.625 9.625L9.00638 9.00638Z" fill="#CF3838"/>
</svg>
