<svg width="20" height="20" viewBox="0 0 14 14" fill="none" xmlns="http://www.w3.org/2000/svg">
<g clip-path="url(#clip0_25_43)">
<path d="M5.25 1.75C5.68265 1.75 6.10558 1.87829 6.46531 2.11866C6.82504 2.35903 7.10542 2.70067 7.27099 3.10038C7.43655 3.50009 7.47987 3.93993 7.39547 4.36426C7.31106 4.78859 7.10272 5.17837 6.7968 5.4843C6.49087 5.79022 6.10109 5.99856 5.67676 6.08297C5.25243 6.16737 4.81259 6.12405 4.41288 5.95849C4.01317 5.79292 3.67153 5.51254 3.43116 5.15281C3.19079 4.79308 3.0625 4.37015 3.0625 3.9375C3.0625 3.35734 3.29297 2.80094 3.7032 2.3907C4.11344 1.98047 4.66984 1.75 5.25 1.75ZM5.25 0.875C4.64429 0.875 4.05219 1.05461 3.54857 1.39112C3.04494 1.72764 2.65241 2.20593 2.42062 2.76553C2.18883 3.32513 2.12818 3.9409 2.24635 4.53496C2.36451 5.12903 2.65619 5.67472 3.08449 6.10301C3.51278 6.53131 4.05847 6.82299 4.65254 6.94115C5.2466 7.05932 5.86237 6.99867 6.42197 6.76688C6.98157 6.53509 7.45986 6.14256 7.79638 5.63893C8.13289 5.13531 8.3125 4.54321 8.3125 3.9375C8.3125 3.12527 7.98984 2.34632 7.41551 1.77199C6.84118 1.19766 6.06223 0.875 5.25 0.875ZM9.625 13.125H8.75V10.9375C8.75 10.3573 8.51953 9.80094 8.1093 9.3907C7.69906 8.98047 7.14266 8.75 6.5625 8.75H3.9375C3.35734 8.75 2.80094 8.98047 2.3907 9.3907C1.98047 9.80094 1.75 10.3573 1.75 10.9375V13.125H0.875V10.9375C0.875 10.1253 1.19766 9.34632 1.77199 8.77199C2.34632 8.19766 3.12527 7.875 3.9375 7.875H6.5625C7.37473 7.875 8.15368 8.19766 8.72801 8.77199C9.30234 9.34632 9.625 10.1253 9.625 10.9375V13.125ZM9.625 1.75H14V2.625H9.625V1.75ZM9.625 3.9375H14V4.8125H9.625V3.9375ZM9.625 6.125H12.6875V7H9.625V6.125Z" fill="#484848"/>
</g>
<defs>
<clipPath id="clip0_25_43">
<rect width="14" height="14" fill="white"/>
</clipPath>
</defs>
</svg>
