<svg width="14" height="14" viewBox="0 0 14 14" fill="none" xmlns="http://www.w3.org/2000/svg">
<g clip-path="url(#clip0_25_8)">
<path d="M10.5 9.1875H11.375V11.375H10.5V9.1875ZM8.75 7H9.625V11.375H8.75V7ZM4.8125 11.375C4.23255 11.3743 3.67656 11.1436 3.26647 10.7335C2.85639 10.3234 2.62569 9.76745 2.625 9.1875H3.5C3.5 9.44709 3.57698 9.70085 3.7212 9.91669C3.86542 10.1325 4.0704 10.3008 4.31023 10.4001C4.55006 10.4994 4.81396 10.5254 5.06856 10.4748C5.32316 10.4241 5.55702 10.2991 5.74058 10.1156C5.92413 9.93202 6.04914 9.69816 6.09978 9.44356C6.15042 9.18896 6.12443 8.92506 6.02509 8.68523C5.92575 8.4454 5.75753 8.24042 5.54169 8.0962C5.32585 7.95198 5.07209 7.875 4.8125 7.875V7C5.39266 7 5.94906 7.23047 6.3593 7.6407C6.76953 8.05094 7 8.60734 7 9.1875C7 9.76766 6.76953 10.3241 6.3593 10.7343C5.94906 11.1445 5.39266 11.375 4.8125 11.375Z" fill="#484848"/>
<path d="M12.25 0.875H1.75C1.51794 0.875 1.29538 0.967187 1.13128 1.13128C0.967187 1.29538 0.875 1.51794 0.875 1.75V12.25C0.875 12.4821 0.967187 12.7046 1.13128 12.8687C1.29538 13.0328 1.51794 13.125 1.75 13.125H12.25C12.482 13.1247 12.7043 13.0324 12.8683 12.8683C13.0324 12.7043 13.1247 12.482 13.125 12.25V1.75C13.125 1.51794 13.0328 1.29538 12.8687 1.13128C12.7046 0.967187 12.4821 0.875 12.25 0.875ZM12.25 4.8125H6.125V1.75H12.25V4.8125ZM5.25 1.75V4.8125H1.75V1.75H5.25ZM1.75 12.25V5.6875H12.25L12.2509 12.25H1.75Z" fill="#484848"/>
</g>
<defs>
<clipPath id="clip0_25_8">
<rect width="14" height="14" fill="white"/>
</clipPath>
</defs>
</svg>
