<svg width="14" height="14" viewBox="0 0 14 14" fill="none" xmlns="http://www.w3.org/2000/svg">
<path d="M11.375 13.125H6.125C5.89294 13.125 5.67038 13.0328 5.50628 12.8687C5.34219 12.7046 5.25 12.4821 5.25 12.25V10.9375H6.125V12.25H11.375V1.75H6.125V3.0625H5.25V1.75C5.25 1.51794 5.34219 1.29538 5.50628 1.13128C5.67038 0.967187 5.89294 0.875 6.125 0.875H11.375C11.6071 0.875 11.8296 0.967187 11.9937 1.13128C12.1578 1.29538 12.25 1.51794 12.25 1.75V12.25C12.25 12.4821 12.1578 12.7046 11.9937 12.8687C11.8296 13.0328 11.6071 13.125 11.375 13.125Z" fill="#499243"/>
<path d="M6.38313 9.00813L7.94938 7.4375H1.75V6.5625H7.94938L6.38313 4.99187L7 4.375L9.625 7L7 9.625L6.38313 9.00813Z" fill="#499243"/>
</svg>
